<?xml version="1.0" standalone="no"?>
<!DOCTYPE svg PUBLIC "-//W3C//DTD SVG 20010904//EN"
 "http://www.w3.org/TR/2001/REC-SVG-20010904/DTD/svg10.dtd">
<svg version="1.0" xmlns="http://www.w3.org/2000/svg"
 width="670.000000pt" height="373.000000pt" viewBox="0 0 670.000000 373.000000"
 preserveAspectRatio="xMidYMid meet">

<g transform="translate(0.000000,373.000000) scale(0.100000,-0.100000)"
fill="#000000" stroke="none">
<path d="M3005 3704 c-66 -8 -154 -21 -195 -29 -41 -9 -100 -20 -130 -26 -30
-6 -75 -17 -100 -25 -94 -29 -232 -75 -248 -83 -9 -5 -46 -24 -82 -41 -93 -47
-230 -153 -230 -179 0 -6 -3 -11 -8 -11 -4 0 -16 -17 -27 -37 -20 -36 -20 -61
-20 -1407 l0 -1371 29 -45 c55 -85 170 -177 291 -234 22 -10 48 -22 58 -28 41
-21 253 -88 337 -107 252 -55 404 -71 670 -71 224 0 391 14 550 45 41 9 100
20 130 26 104 20 305 90 416 145 124 62 204 126 255 206 l34 53 0 1370 0 1370
-23 42 c-27 49 -71 97 -127 138 -22 17 -45 35 -52 41 -10 10 -120 65 -203 101
-19 9 -43 20 -52 24 -10 5 -24 9 -33 9 -8 0 -29 6 -47 14 -91 38 -300 82 -528
110 -155 20 -496 19 -665 0z m655 -199 c156 -17 233 -29 310 -48 140 -36 261
-91 321 -146 41 -39 44 -45 44 -95 0 -48 -3 -56 -34 -81 -18 -16 -39 -34 -45
-41 -28 -27 -169 -84 -268 -108 -215 -51 -393 -71 -643 -71 -338 0 -635 49
-822 135 -125 58 -180 126 -161 197 9 34 76 98 129 124 156 75 286 106 569
138 126 14 455 12 600 -4z m-871 -1386 c123 -19 111 -7 111 -114 0 -52 -2 -95
-5 -95 -2 0 -27 9 -55 20 -71 28 -185 28 -200 1 -5 -11 -10 -24 -10 -30 0 -13
51 -61 65 -61 19 0 131 -61 168 -91 49 -40 69 -86 70 -158 0 -87 -16 -119 -93
-184 -57 -48 -245 -66 -379 -36 l-61 13 0 108 0 107 36 -24 c40 -27 127 -55
174 -55 59 0 88 31 69 73 -9 20 -132 87 -160 87 -5 0 -9 4 -9 9 0 5 -8 11 -18
13 -10 3 -35 25 -55 50 -30 37 -38 56 -43 104 -6 61 9 144 26 144 6 0 10 5 10
11 0 14 45 55 85 77 29 15 134 39 184 41 13 1 54 -4 90 -10z m647 0 c83 -14
138 -42 193 -97 72 -72 104 -147 109 -259 4 -89 -12 -170 -41 -211 -5 -7 -17
-27 -27 -45 -9 -17 -44 -53 -77 -78 -59 -45 -60 -46 -38 -60 22 -13 83 -66
183 -156 l47 -43 -140 0 -141 0 -32 29 c-17 17 -32 32 -32 36 0 3 -27 32 -61
65 -43 43 -68 60 -87 60 -96 1 -217 90 -269 198 -49 101 -44 280 11 372 11 19
24 37 28 38 4 2 8 8 8 12 0 13 57 70 70 70 5 0 10 3 10 8 0 12 92 51 145 61
69 12 74 12 141 0z m634 -294 l0 -285 130 0 130 0 0 -90 0 -90 -240 0 -240 0
0 375 0 375 110 0 110 0 0 -285z"/>
<path d="M3315 1921 c-53 -23 -85 -94 -85 -188 0 -193 169 -261 251 -101 39
76 18 221 -39 272 -24 21 -96 30 -127 17z"/>
</g>
</svg>
