<?xml version="1.0" standalone="no"?>
<!DOCTYPE svg PUBLIC "-//W3C//DTD SVG 20010904//EN"
 "http://www.w3.org/TR/2001/REC-SVG-20010904/DTD/svg10.dtd">
<svg version="1.0" xmlns="http://www.w3.org/2000/svg"
 width="2000.000000pt" height="680.000000pt" viewBox="0 0 2000.000000 680.000000"
 preserveAspectRatio="xMidYMid meet">

<g transform="translate(0.000000,680.000000) scale(0.100000,-0.100000)"
fill="#000000" stroke="none">
<path d="M3137 5085 c-271 -44 -516 -145 -742 -304 -108 -76 -305 -275 -387
-391 -127 -179 -228 -412 -280 -646 -19 -87 -22 -128 -22 -334 0 -262 10 -331
79 -538 207 -618 749 -1061 1398 -1142 140 -18 413 -8 542 20 636 135 1132
602 1299 1220 95 356 68 764 -75 1098 -222 520 -663 881 -1226 1003 -129 28
-454 35 -586 14z m581 -114 c627 -139 1092 -608 1234 -1243 20 -90 23 -130 23
-318 0 -188 -3 -228 -23 -318 -141 -630 -595 -1092 -1217 -1238 -113 -27 -133
-28 -345 -28 -195 0 -238 3 -323 22 -570 127 -1015 526 -1192 1067 -103 313
-103 677 0 990 78 239 206 446 390 630 245 245 524 389 875 451 117 21 458 12
578 -15z"/>
<path d="M3177 4805 c-303 -49 -559 -179 -780 -394 -67 -65 -177 -199 -177
-216 0 -4 110 -5 244 -2 227 6 244 5 260 -11 47 -52 0 -97 -109 -105 -43 -3
-79 -8 -81 -10 -3 -2 109 -342 247 -756 139 -413 255 -748 259 -744 10 11 300
884 300 903 0 8 -48 147 -106 308 -79 217 -111 292 -123 292 -51 1 -154 20
-166 30 -18 15 -20 74 -2 87 7 5 190 8 419 8 434 -1 438 -2 438 -50 0 -40 -40
-61 -125 -68 -43 -3 -79 -8 -81 -10 -3 -3 109 -344 248 -758 l253 -753 16 55
c9 30 56 178 103 329 97 307 126 434 126 542 -1 145 -35 250 -144 436 -88 150
-109 212 -104 300 3 55 10 79 34 118 37 60 101 105 160 112 24 2 44 6 44 9 0
9 -59 55 -143 114 -157 108 -322 180 -512 221 -121 26 -377 33 -498 13z"/>
<path d="M4634 3932 c0 -92 -6 -164 -18 -221 -10 -46 -128 -402 -262 -790
-134 -388 -243 -709 -242 -713 6 -18 179 112 273 207 383 383 512 939 337
1455 -16 47 -42 111 -58 142 l-29 57 -1 -137z"/>
<path d="M2062 3887 c-61 -167 -77 -271 -76 -482 0 -168 3 -203 26 -301 94
-399 336 -725 686 -923 41 -22 72 -37 70 -32 -2 5 -151 417 -333 915 -181 498
-333 906 -337 906 -3 0 -20 -37 -36 -83z"/>
<path d="M3411 3278 c-1 -3 -94 -275 -207 -605 -113 -329 -206 -602 -207 -607
-3 -14 120 -43 236 -57 175 -20 397 -1 552 48 28 8 54 19 58 23 4 3 -87 265
-202 581 -221 606 -229 628 -230 617z"/>
<path d="M5260 4186 l0 -33 68 -7 c123 -13 179 -54 238 -181 18 -38 121 -342
229 -675 108 -333 207 -640 221 -682 22 -68 29 -78 49 -78 22 0 35 34 215 578
106 317 195 580 199 584 4 4 92 -254 196 -575 181 -554 191 -582 215 -585 25
-3 29 10 254 685 222 669 261 771 314 842 34 45 111 79 200 87 l72 7 0 33 0
34 -350 0 -350 0 0 -34 0 -33 66 -6 c78 -8 134 -32 152 -67 26 -51 8 -125
-137 -555 -78 -230 -143 -421 -146 -423 -2 -2 -87 247 -188 555 l-185 558 -37
0 -37 0 -187 -552 c-102 -303 -188 -554 -191 -557 -3 -3 -68 187 -145 421
-112 342 -139 438 -140 484 0 89 42 124 164 135 l71 7 0 33 0 34 -415 0 -415
0 0 -34z"/>
<path d="M11990 4187 l0 -34 67 -6 c136 -13 192 -66 213 -204 16 -99 8 -1074
-8 -1124 -32 -97 -90 -139 -203 -147 l-69 -5 0 -38 0 -39 428 2 427 3 0 35 0
35 -70 7 c-122 11 -161 36 -197 127 -19 50 -22 80 -26 272 l-4 216 175 7 c310
12 475 78 572 230 53 84 68 144 63 254 -3 83 -8 107 -35 165 -40 84 -112 156
-202 202 -136 68 -136 68 -658 72 l-473 4 0 -34z m901 -119 c54 -24 117 -85
147 -142 24 -47 27 -61 27 -166 0 -101 -3 -121 -24 -164 -30 -62 -82 -113
-140 -139 -39 -18 -71 -22 -198 -25 l-153 -4 0 332 0 332 153 -4 c110 -3 162
-9 188 -20z"/>
<path d="M8064 3875 c-143 -32 -275 -105 -379 -210 -77 -77 -124 -151 -155
-238 -82 -233 -23 -474 160 -657 147 -148 331 -220 558 -220 348 0 647 214
727 521 22 80 22 224 0 303 -64 239 -268 428 -534 495 -99 25 -278 27 -377 6z
m301 -110 c168 -44 284 -174 331 -371 22 -92 22 -259 0 -344 -57 -221 -186
-350 -381 -380 -194 -30 -373 58 -463 228 -97 181 -97 453 -2 643 37 71 117
157 178 188 98 50 229 64 337 36z"/>
<path d="M16535 3876 c-113 -27 -212 -102 -257 -194 -19 -38 -23 -63 -23 -132
0 -76 4 -92 32 -145 54 -105 116 -153 347 -266 225 -110 291 -158 321 -231 26
-66 13 -122 -39 -174 -51 -52 -104 -68 -207 -62 -194 11 -335 144 -383 361 -6
23 -11 27 -41 27 l-35 0 0 -255 0 -255 33 0 c31 0 35 4 56 55 13 30 27 57 31
60 5 3 33 -9 62 -28 104 -65 178 -87 293 -87 234 0 413 138 446 342 18 112
-36 242 -133 321 -24 19 -135 81 -248 137 -234 117 -279 146 -310 195 -30 48
-24 124 11 161 96 103 301 88 402 -30 29 -34 67 -112 81 -169 13 -50 15 -52
50 -55 l36 -3 0 220 0 221 -33 0 c-28 0 -35 -5 -45 -32 -24 -65 -24 -65 -104
-25 -110 56 -229 71 -343 43z"/>
<path d="M17677 3879 c-120 -28 -230 -117 -267 -216 -18 -46 -21 -73 -18 -130
10 -149 102 -259 294 -352 273 -133 298 -147 350 -196 88 -84 94 -178 15 -256
-42 -43 -91 -59 -177 -59 -184 0 -334 116 -392 303 -26 86 -27 87 -59 87 l-33
0 0 -255 0 -255 33 0 c30 0 35 4 46 38 7 21 21 48 30 61 l18 23 54 -36 c80
-53 160 -78 263 -84 105 -5 177 8 259 50 189 95 271 309 186 484 -45 95 -109
143 -341 260 -239 120 -291 152 -319 197 -29 48 -26 118 7 157 43 51 99 74
179 74 152 0 266 -99 309 -267 13 -50 15 -52 50 -55 l36 -3 0 220 0 221 -34 0
c-30 0 -36 -4 -46 -34 -19 -57 -31 -61 -92 -27 -94 53 -246 75 -351 50z"/>
<path d="M9068 3844 c-5 -4 -8 -19 -8 -34 0 -26 3 -27 75 -38 165 -23 175 -54
175 -552 0 -497 -11 -529 -177 -553 l-74 -10 3 -31 3 -31 373 -3 372 -2 0 34
0 34 -62 7 c-144 17 -167 52 -181 271 -6 83 -7 158 -4 167 4 11 18 17 36 17
26 0 50 -27 241 -265 l212 -265 536 0 c570 0 719 7 847 40 237 59 405 215 459
426 21 81 21 247 0 328 -58 227 -232 379 -499 436 -90 20 -141 22 -512 27
l-413 6 0 -35 0 -35 73 -10 c124 -18 153 -50 168 -191 12 -115 11 -615 -1
-720 -16 -141 -44 -176 -156 -194 -81 -12 -149 1 -247 49 -62 31 -94 58 -240
206 -93 94 -173 179 -178 188 -7 15 1 20 59 38 221 67 332 257 261 448 -41
109 -137 184 -286 225 -72 19 -110 21 -463 25 -212 3 -388 1 -392 -3z m764
-132 c85 -37 131 -118 131 -227 0 -90 -23 -144 -80 -195 -54 -47 -114 -62
-234 -58 l-84 3 -3 240 c-1 132 0 246 3 254 8 21 209 9 267 -17z m1464 8 c110
-25 215 -103 262 -196 44 -87 57 -152 57 -299 0 -127 -3 -148 -28 -226 -45
-138 -130 -227 -250 -265 -70 -22 -257 -31 -297 -14 -65 27 -65 26 -68 534 -2
252 -1 465 3 474 5 13 24 14 140 9 74 -4 156 -12 181 -17z"/>
<path d="M13457 3843 c-4 -3 -7 -18 -7 -33 0 -26 3 -27 77 -38 168 -23 176
-50 171 -591 -3 -360 -4 -378 -25 -423 -28 -60 -56 -78 -148 -91 l-76 -10 3
-31 3 -31 373 -3 372 -2 0 33 0 33 -72 12 c-79 12 -113 32 -143 83 -17 30 -20
56 -24 202 l-3 167 31 0 c28 0 48 -21 243 -265 l212 -265 770 2 771 3 7 95 c3
52 9 132 12 178 l6 83 -27 -3 c-23 -3 -29 -11 -43 -59 -46 -154 -110 -184
-383 -177 -165 3 -185 11 -222 84 -17 34 -20 65 -23 223 l-4 184 93 -7 c180
-14 213 -37 225 -157 l7 -70 31 3 31 3 3 278 2 277 -34 0 -33 0 -7 -62 c-4
-34 -14 -74 -21 -89 -20 -38 -82 -59 -196 -66 l-99 -6 0 216 0 217 103 0 c56
-1 148 -5 204 -9 166 -14 208 -45 248 -183 14 -50 20 -58 40 -58 13 0 26 3 28
8 2 4 -2 79 -9 167 -7 88 -13 166 -13 173 -1 9 -118 12 -551 12 l-550 0 0 -33
0 -33 72 -12 c82 -12 115 -32 143 -88 19 -37 20 -62 23 -426 4 -488 -2 -527
-90 -571 -83 -41 -201 -15 -325 72 -60 42 -278 261 -342 343 l-21 27 57 16
c185 54 293 177 293 334 0 84 -26 154 -78 212 -79 88 -180 132 -344 149 -110
11 -731 14 -741 3z m765 -131 c145 -64 184 -295 69 -409 -53 -53 -95 -67 -218
-71 l-113 -4 0 257 0 258 109 -6 c76 -4 123 -11 153 -25z"/>
</g>
</svg>
